<svg xmlns="http://www.w3.org/2000/svg" width="328" height="328" viewBox="0 0 328 328" role="img" aria-label="https://vetcardiohub.com/app?src=youtube"><rect width="328" height="328" fill="#ffffff"/><path fill="#0f172a" d="M32 32h56v8h-56zM104 32h8v8h-8zM136 32h48v8h-48zM208 32h16v8h-16zM240 32h56v8h-56zM32 40h8v8h-8zM80 40h8v8h-8zM112 40h24v8h-24zM152 40h8v8h-8zM168 40h8v8h-8zM184 40h16v8h-16zM208 40h8v8h-8zM240 40h8v8h-8zM288 40h8v8h-8zM32 48h8v8h-8zM48 48h24v8h-24zM80 48h8v8h-8zM96 48h8v8h-8zM112 48h16v8h-16zM144 48h24v8h-24zM184 48h40v8h-40zM240 48h8v8h-8zM256 48h24v8h-24zM288 48h8v8h-8zM32 56h8v8h-8zM48 56h24v8h-24zM80 56h8v8h-8zM112 56h8v8h-8zM128 56h24v8h-24zM160 56h40v8h-40zM216 56h16v8h-16zM240 56h8v8h-8zM256 56h24v8h-24zM288 56h8v8h-8zM32 64h8v8h-8zM48 64h24v8h-24zM80 64h8v8h-8zM96 64h16v8h-16zM120 64h8v8h-8zM176 64h24v8h-24zM208 64h16v8h-16zM240 64h8v8h-8zM256 64h24v8h-24zM288 64h8v8h-8zM32 72h8v8h-8zM80 72h8v8h-8zM96 72h8v8h-8zM112 72h24v8h-24zM144 72h8v8h-8zM168 72h24v8h-24zM200 72h8v8h-8zM240 72h8v8h-8zM288 72h8v8h-8zM32 80h56v8h-56zM96 80h8v8h-8zM112 80h8v8h-8zM128 80h8v8h-8zM144 80h8v8h-8zM160 80h8v8h-8zM176 80h8v8h-8zM192 80h8v8h-8zM208 80h8v8h-8zM224 80h8v8h-8zM240 80h56v8h-56zM104 88h8v8h-8zM152 88h32v8h-32zM200 88h32v8h-32zM40 96h8v8h-8zM64 96h8v8h-8zM80 96h8v8h-8zM96 96h8v8h-8zM112 96h8v8h-8zM136 96h8v8h-8zM168 96h8v8h-8zM184 96h32v8h-32zM224 96h16v8h-16zM248 96h16v8h-16zM272 96h8v8h-8zM32 104h32v8h-32zM88 104h32v8h-32zM128 104h8v8h-8zM144 104h24v8h-24zM176 104h8v8h-8zM192 104h8v8h-8zM216 104h8v8h-8zM232 104h8v8h-8zM264 104h24v8h-24zM48 112h40v8h-40zM96 112h16v8h-16zM136 112h8v8h-8zM152 112h8v8h-8zM168 112h8v8h-8zM200 112h8v8h-8zM216 112h16v8h-16zM264 112h8v8h-8zM280 112h8v8h-8zM64 120h8v8h-8zM88 120h40v8h-40zM144 120h8v8h-8zM168 120h24v8h-24zM200 120h8v8h-8zM240 120h8v8h-8zM280 120h16v8h-16zM32 128h16v8h-16zM56 128h8v8h-8zM72 128h16v8h-16zM112 128h16v8h-16zM144 128h8v8h-8zM176 128h40v8h-40zM240 128h32v8h-32zM48 136h8v8h-8zM64 136h8v8h-8zM88 136h8v8h-8zM104 136h24v8h-24zM144 136h8v8h-8zM184 136h8v8h-8zM216 136h8v8h-8zM232 136h8v8h-8zM248 136h8v8h-8zM272 136h8v8h-8zM32 144h16v8h-16zM56 144h8v8h-8zM80 144h8v8h-8zM104 144h8v8h-8zM128 144h8v8h-8zM152 144h24v8h-24zM184 144h8v8h-8zM200 144h8v8h-8zM216 144h32v8h-32zM280 144h8v8h-8zM56 152h8v8h-8zM120 152h8v8h-8zM176 152h40v8h-40zM224 152h40v8h-40zM32 160h8v8h-8zM48 160h56v8h-56zM136 160h24v8h-24zM168 160h8v8h-8zM192 160h40v8h-40zM240 160h8v8h-8zM256 160h16v8h-16zM280 160h8v8h-8zM40 168h8v8h-8zM56 168h24v8h-24zM88 168h16v8h-16zM112 168h8v8h-8zM152 168h16v8h-16zM216 168h8v8h-8zM264 168h24v8h-24zM40 176h56v8h-56zM104 176h32v8h-32zM160 176h8v8h-8zM192 176h8v8h-8zM208 176h16v8h-16zM248 176h8v8h-8zM264 176h8v8h-8zM40 184h8v8h-8zM72 184h8v8h-8zM88 184h8v8h-8zM128 184h16v8h-16zM152 184h8v8h-8zM168 184h8v8h-8zM192 184h64v8h-64zM280 184h8v8h-8zM40 192h8v8h-8zM56 192h8v8h-8zM72 192h48v8h-48zM128 192h16v8h-16zM152 192h8v8h-8zM168 192h24v8h-24zM200 192h16v8h-16zM224 192h48v8h-48zM32 200h16v8h-16zM88 200h8v8h-8zM104 200h16v8h-16zM144 200h8v8h-8zM168 200h8v8h-8zM184 200h24v8h-24zM216 200h8v8h-8zM248 200h8v8h-8zM272 200h16v8h-16zM48 208h40v8h-40zM96 208h8v8h-8zM112 208h16v8h-16zM136 208h40v8h-40zM192 208h48v8h-48zM264 208h8v8h-8zM280 208h8v8h-8zM96 216h24v8h-24zM128 216h8v8h-8zM160 216h24v8h-24zM200 216h8v8h-8zM216 216h8v8h-8zM240 216h8v8h-8zM32 224h24v8h-24zM80 224h24v8h-24zM112 224h24v8h-24zM184 224h8v8h-8zM200 224h72v8h-72zM280 224h8v8h-8zM96 232h8v8h-8zM120 232h40v8h-40zM176 232h8v8h-8zM216 232h16v8h-16zM256 232h8v8h-8zM272 232h16v8h-16zM32 240h56v8h-56zM104 240h8v8h-8zM168 240h16v8h-16zM200 240h8v8h-8zM224 240h8v8h-8zM240 240h8v8h-8zM256 240h16v8h-16zM280 240h8v8h-8zM32 248h8v8h-8zM80 248h8v8h-8zM112 248h8v8h-8zM152 248h8v8h-8zM176 248h8v8h-8zM200 248h8v8h-8zM224 248h8v8h-8zM256 248h8v8h-8zM280 248h16v8h-16zM32 256h8v8h-8zM48 256h24v8h-24zM80 256h8v8h-8zM96 256h24v8h-24zM128 256h8v8h-8zM144 256h24v8h-24zM192 256h8v8h-8zM224 256h48v8h-48zM32 264h8v8h-8zM48 264h24v8h-24zM80 264h8v8h-8zM104 264h8v8h-8zM128 264h8v8h-8zM184 264h8v8h-8zM200 264h8v8h-8zM216 264h16v8h-16zM240 264h24v8h-24zM272 264h16v8h-16zM32 272h8v8h-8zM48 272h24v8h-24zM80 272h8v8h-8zM128 272h24v8h-24zM184 272h8v8h-8zM240 272h32v8h-32zM32 280h8v8h-8zM80 280h8v8h-8zM96 280h16v8h-16zM120 280h16v8h-16zM144 280h24v8h-24zM184 280h24v8h-24zM224 280h24v8h-24zM264 280h8v8h-8zM32 288h56v8h-56zM104 288h8v8h-8zM128 288h8v8h-8zM144 288h8v8h-8zM160 288h24v8h-24zM192 288h40v8h-40zM240 288h8v8h-8zM264 288h8v8h-8zM288 288h8v8h-8z"/></svg>