<svg xmlns="http://www.w3.org/2000/svg" width="328" height="328" viewBox="0 0 328 328" role="img" aria-label="https://vetcardiohub.com/echo-app"><rect width="328" height="328" fill="#ffffff"/><path fill="#0f172a" d="M32 32h56v8h-56zM128 32h8v8h-8zM144 32h16v8h-16zM176 32h8v8h-8zM208 32h16v8h-16zM240 32h56v8h-56zM32 40h8v8h-8zM80 40h8v8h-8zM128 40h8v8h-8zM152 40h8v8h-8zM176 40h24v8h-24zM240 40h8v8h-8zM288 40h8v8h-8zM32 48h8v8h-8zM48 48h24v8h-24zM80 48h8v8h-8zM96 48h8v8h-8zM112 48h8v8h-8zM128 48h16v8h-16zM168 48h40v8h-40zM216 48h8v8h-8zM240 48h8v8h-8zM256 48h24v8h-24zM288 48h8v8h-8zM32 56h8v8h-8zM48 56h24v8h-24zM80 56h8v8h-8zM112 56h16v8h-16zM144 56h32v8h-32zM184 56h8v8h-8zM200 56h24v8h-24zM240 56h8v8h-8zM256 56h24v8h-24zM288 56h8v8h-8zM32 64h8v8h-8zM48 64h24v8h-24zM80 64h8v8h-8zM96 64h8v8h-8zM112 64h8v8h-8zM144 64h8v8h-8zM184 64h8v8h-8zM208 64h8v8h-8zM240 64h8v8h-8zM256 64h24v8h-24zM288 64h8v8h-8zM32 72h8v8h-8zM80 72h8v8h-8zM96 72h16v8h-16zM120 72h8v8h-8zM144 72h16v8h-16zM168 72h16v8h-16zM192 72h16v8h-16zM216 72h16v8h-16zM240 72h8v8h-8zM288 72h8v8h-8zM32 80h56v8h-56zM96 80h8v8h-8zM112 80h8v8h-8zM128 80h8v8h-8zM144 80h8v8h-8zM160 80h8v8h-8zM176 80h8v8h-8zM192 80h8v8h-8zM208 80h8v8h-8zM224 80h8v8h-8zM240 80h56v8h-56zM104 88h8v8h-8zM136 88h8v8h-8zM152 88h64v8h-64zM224 88h8v8h-8zM40 96h8v8h-8zM64 96h8v8h-8zM80 96h8v8h-8zM96 96h8v8h-8zM112 96h32v8h-32zM152 96h24v8h-24zM192 96h48v8h-48zM248 96h16v8h-16zM272 96h8v8h-8zM40 104h16v8h-16zM64 104h8v8h-8zM104 104h8v8h-8zM120 104h16v8h-16zM144 104h16v8h-16zM168 104h16v8h-16zM192 104h16v8h-16zM216 104h8v8h-8zM232 104h8v8h-8zM264 104h24v8h-24zM40 112h32v8h-32zM80 112h24v8h-24zM112 112h8v8h-8zM128 112h8v8h-8zM144 112h8v8h-8zM160 112h8v8h-8zM176 112h8v8h-8zM216 112h16v8h-16zM264 112h8v8h-8zM280 112h8v8h-8zM32 120h24v8h-24zM72 120h8v8h-8zM104 120h8v8h-8zM128 120h8v8h-8zM184 120h8v8h-8zM208 120h8v8h-8zM232 120h8v8h-8zM280 120h16v8h-16zM40 128h8v8h-8zM64 128h8v8h-8zM80 128h16v8h-16zM112 128h16v8h-16zM136 128h8v8h-8zM152 128h16v8h-16zM184 128h8v8h-8zM208 128h8v8h-8zM240 128h8v8h-8zM256 128h16v8h-16zM32 136h8v8h-8zM48 136h16v8h-16zM96 136h8v8h-8zM120 136h8v8h-8zM152 136h8v8h-8zM168 136h32v8h-32zM224 136h8v8h-8zM248 136h8v8h-8zM264 136h16v8h-16zM56 144h8v8h-8zM80 144h8v8h-8zM104 144h24v8h-24zM136 144h16v8h-16zM160 144h8v8h-8zM192 144h16v8h-16zM216 144h32v8h-32zM256 144h8v8h-8zM280 144h8v8h-8zM32 152h8v8h-8zM112 152h24v8h-24zM168 152h8v8h-8zM200 152h24v8h-24zM232 152h16v8h-16zM32 160h16v8h-16zM56 160h8v8h-8zM80 160h8v8h-8zM104 160h8v8h-8zM128 160h16v8h-16zM168 160h48v8h-48zM224 160h8v8h-8zM240 160h8v8h-8zM256 160h8v8h-8zM280 160h8v8h-8zM40 168h16v8h-16zM72 168h8v8h-8zM88 168h8v8h-8zM112 168h16v8h-16zM136 168h16v8h-16zM160 168h24v8h-24zM216 168h8v8h-8zM264 168h24v8h-24zM80 176h32v8h-32zM128 176h8v8h-8zM152 176h8v8h-8zM168 176h16v8h-16zM192 176h32v8h-32zM248 176h8v8h-8zM264 176h8v8h-8zM32 184h8v8h-8zM48 184h8v8h-8zM96 184h8v8h-8zM120 184h8v8h-8zM136 184h16v8h-16zM160 184h16v8h-16zM192 184h16v8h-16zM216 184h16v8h-16zM248 184h8v8h-8zM280 184h8v8h-8zM32 192h16v8h-16zM56 192h16v8h-16zM80 192h8v8h-8zM96 192h24v8h-24zM144 192h8v8h-8zM168 192h32v8h-32zM224 192h8v8h-8zM240 192h8v8h-8zM256 192h16v8h-16zM32 200h8v8h-8zM64 200h8v8h-8zM96 200h24v8h-24zM144 200h32v8h-32zM184 200h8v8h-8zM200 200h16v8h-16zM272 200h16v8h-16zM56 208h16v8h-16zM80 208h8v8h-8zM120 208h8v8h-8zM144 208h8v8h-8zM168 208h8v8h-8zM184 208h8v8h-8zM200 208h16v8h-16zM232 208h8v8h-8zM272 208h16v8h-16zM72 216h8v8h-8zM104 216h8v8h-8zM120 216h16v8h-16zM144 216h8v8h-8zM160 216h8v8h-8zM184 216h24v8h-24zM224 216h8v8h-8zM240 216h8v8h-8zM280 216h8v8h-8zM32 224h16v8h-16zM56 224h32v8h-32zM96 224h8v8h-8zM120 224h16v8h-16zM144 224h16v8h-16zM200 224h64v8h-64zM280 224h16v8h-16zM96 232h8v8h-8zM112 232h8v8h-8zM152 232h8v8h-8zM168 232h16v8h-16zM200 232h8v8h-8zM216 232h16v8h-16zM256 232h8v8h-8zM272 232h16v8h-16zM32 240h56v8h-56zM104 240h8v8h-8zM136 240h24v8h-24zM176 240h8v8h-8zM224 240h8v8h-8zM240 240h8v8h-8zM256 240h16v8h-16zM280 240h8v8h-8zM32 248h8v8h-8zM80 248h8v8h-8zM112 248h40v8h-40zM160 248h8v8h-8zM176 248h8v8h-8zM208 248h8v8h-8zM224 248h8v8h-8zM256 248h8v8h-8zM280 248h16v8h-16zM32 256h8v8h-8zM48 256h24v8h-24zM80 256h8v8h-8zM96 256h16v8h-16zM128 256h24v8h-24zM160 256h8v8h-8zM208 256h8v8h-8zM224 256h48v8h-48zM32 264h8v8h-8zM48 264h24v8h-24zM80 264h8v8h-8zM112 264h8v8h-8zM168 264h40v8h-40zM216 264h16v8h-16zM240 264h24v8h-24zM280 264h8v8h-8zM32 272h8v8h-8zM48 272h24v8h-24zM80 272h8v8h-8zM104 272h8v8h-8zM128 272h24v8h-24zM160 272h24v8h-24zM192 272h8v8h-8zM240 272h32v8h-32zM32 280h8v8h-8zM80 280h8v8h-8zM96 280h16v8h-16zM120 280h8v8h-8zM136 280h8v8h-8zM160 280h8v8h-8zM176 280h8v8h-8zM200 280h8v8h-8zM216 280h8v8h-8zM32 288h56v8h-56zM104 288h8v8h-8zM144 288h8v8h-8zM184 288h32v8h-32zM224 288h24v8h-24zM288 288h8v8h-8z"/></svg>