<svg xmlns="http://www.w3.org/2000/svg" width="360" height="360" viewBox="0 0 360 360" role="img" aria-label="https://vetcardiohub.com/echo-app?src=conference"><rect width="360" height="360" fill="#ffffff"/><path fill="#0f172a" d="M32 32h56v8h-56zM96 32h8v8h-8zM112 32h8v8h-8zM136 32h8v8h-8zM168 32h24v8h-24zM200 32h8v8h-8zM256 32h8v8h-8zM272 32h56v8h-56zM32 40h8v8h-8zM80 40h8v8h-8zM104 40h40v8h-40zM152 40h8v8h-8zM168 40h8v8h-8zM184 40h8v8h-8zM216 40h24v8h-24zM248 40h16v8h-16zM272 40h8v8h-8zM320 40h8v8h-8zM32 48h8v8h-8zM48 48h24v8h-24zM80 48h8v8h-8zM112 48h16v8h-16zM176 48h8v8h-8zM200 48h24v8h-24zM240 48h8v8h-8zM272 48h8v8h-8zM288 48h24v8h-24zM320 48h8v8h-8zM32 56h8v8h-8zM48 56h24v8h-24zM80 56h8v8h-8zM112 56h8v8h-8zM136 56h16v8h-16zM160 56h40v8h-40zM208 56h32v8h-32zM248 56h8v8h-8zM272 56h8v8h-8zM288 56h24v8h-24zM320 56h8v8h-8zM32 64h8v8h-8zM48 64h24v8h-24zM80 64h8v8h-8zM96 64h16v8h-16zM120 64h40v8h-40zM176 64h16v8h-16zM200 64h8v8h-8zM216 64h8v8h-8zM232 64h16v8h-16zM272 64h8v8h-8zM288 64h24v8h-24zM320 64h8v8h-8zM32 72h8v8h-8zM80 72h8v8h-8zM96 72h16v8h-16zM144 72h8v8h-8zM168 72h16v8h-16zM192 72h8v8h-8zM224 72h40v8h-40zM272 72h8v8h-8zM320 72h8v8h-8zM32 80h56v8h-56zM96 80h8v8h-8zM112 80h8v8h-8zM128 80h8v8h-8zM144 80h8v8h-8zM160 80h8v8h-8zM176 80h8v8h-8zM192 80h8v8h-8zM208 80h8v8h-8zM224 80h8v8h-8zM240 80h8v8h-8zM256 80h8v8h-8zM272 80h56v8h-56zM112 88h16v8h-16zM168 88h8v8h-8zM192 88h32v8h-32zM232 88h8v8h-8zM256 88h8v8h-8zM40 96h56v8h-56zM112 96h8v8h-8zM152 96h24v8h-24zM184 96h8v8h-8zM208 96h24v8h-24zM240 96h8v8h-8zM256 96h8v8h-8zM280 96h16v8h-16zM320 96h8v8h-8zM40 104h16v8h-16zM88 104h16v8h-16zM112 104h8v8h-8zM136 104h8v8h-8zM152 104h8v8h-8zM168 104h40v8h-40zM216 104h8v8h-8zM232 104h8v8h-8zM248 104h8v8h-8zM272 104h24v8h-24zM304 104h8v8h-8zM56 112h16v8h-16zM80 112h8v8h-8zM152 112h16v8h-16zM192 112h8v8h-8zM208 112h8v8h-8zM232 112h32v8h-32zM272 112h8v8h-8zM288 112h40v8h-40zM56 120h8v8h-8zM72 120h8v8h-8zM96 120h16v8h-16zM120 120h24v8h-24zM152 120h8v8h-8zM192 120h16v8h-16zM240 120h16v8h-16zM272 120h24v8h-24zM312 120h16v8h-16zM40 128h8v8h-8zM64 128h8v8h-8zM80 128h8v8h-8zM104 128h8v8h-8zM120 128h24v8h-24zM160 128h16v8h-16zM208 128h8v8h-8zM224 128h32v8h-32zM264 128h56v8h-56zM32 136h16v8h-16zM56 136h8v8h-8zM96 136h8v8h-8zM112 136h16v8h-16zM136 136h16v8h-16zM176 136h16v8h-16zM200 136h8v8h-8zM216 136h8v8h-8zM232 136h16v8h-16zM256 136h16v8h-16zM296 136h16v8h-16zM56 144h32v8h-32zM104 144h8v8h-8zM120 144h8v8h-8zM144 144h16v8h-16zM176 144h8v8h-8zM192 144h16v8h-16zM224 144h32v8h-32zM264 144h16v8h-16zM296 144h8v8h-8zM312 144h16v8h-16zM40 152h16v8h-16zM72 152h8v8h-8zM96 152h40v8h-40zM144 152h16v8h-16zM176 152h8v8h-8zM200 152h16v8h-16zM240 152h8v8h-8zM264 152h16v8h-16zM320 152h8v8h-8zM72 160h16v8h-16zM104 160h40v8h-40zM176 160h8v8h-8zM200 160h8v8h-8zM232 160h24v8h-24zM264 160h32v8h-32zM304 160h24v8h-24zM32 168h8v8h-8zM72 168h8v8h-8zM88 168h16v8h-16zM120 168h8v8h-8zM136 168h16v8h-16zM176 168h40v8h-40zM224 168h16v8h-16zM256 168h8v8h-8zM280 168h8v8h-8zM296 168h16v8h-16zM48 176h16v8h-16zM80 176h8v8h-8zM104 176h16v8h-16zM128 176h8v8h-8zM152 176h16v8h-16zM192 176h16v8h-16zM240 176h16v8h-16zM264 176h8v8h-8zM312 176h16v8h-16zM48 184h32v8h-32zM96 184h8v8h-8zM136 184h8v8h-8zM192 184h24v8h-24zM224 184h8v8h-8zM240 184h8v8h-8zM256 184h16v8h-16zM288 184h8v8h-8zM320 184h8v8h-8zM40 192h8v8h-8zM80 192h8v8h-8zM96 192h16v8h-16zM120 192h8v8h-8zM144 192h24v8h-24zM176 192h8v8h-8zM192 192h8v8h-8zM208 192h8v8h-8zM224 192h24v8h-24zM264 192h48v8h-48zM320 192h8v8h-8zM56 200h8v8h-8zM96 200h40v8h-40zM168 200h8v8h-8zM192 200h8v8h-8zM208 200h16v8h-16zM264 200h8v8h-8zM280 200h8v8h-8zM296 200h8v8h-8zM56 208h32v8h-32zM104 208h8v8h-8zM144 208h8v8h-8zM160 208h8v8h-8zM184 208h24v8h-24zM248 208h8v8h-8zM272 208h8v8h-8zM312 208h16v8h-16zM32 216h8v8h-8zM56 216h8v8h-8zM72 216h8v8h-8zM104 216h8v8h-8zM128 216h8v8h-8zM144 216h16v8h-16zM176 216h16v8h-16zM200 216h8v8h-8zM216 216h8v8h-8zM240 216h8v8h-8zM264 216h24v8h-24zM312 216h16v8h-16zM48 224h8v8h-8zM80 224h8v8h-8zM96 224h24v8h-24zM144 224h8v8h-8zM168 224h8v8h-8zM192 224h8v8h-8zM208 224h24v8h-24zM272 224h8v8h-8zM304 224h24v8h-24zM32 232h8v8h-8zM48 232h8v8h-8zM72 232h8v8h-8zM96 232h32v8h-32zM136 232h8v8h-8zM152 232h8v8h-8zM184 232h8v8h-8zM200 232h8v8h-8zM216 232h8v8h-8zM240 232h40v8h-40zM296 232h8v8h-8zM32 240h8v8h-8zM48 240h16v8h-16zM80 240h8v8h-8zM104 240h8v8h-8zM144 240h16v8h-16zM176 240h40v8h-40zM232 240h16v8h-16zM272 240h16v8h-16zM304 240h8v8h-8zM320 240h8v8h-8zM32 248h8v8h-8zM56 248h8v8h-8zM88 248h16v8h-16zM112 248h40v8h-40zM160 248h8v8h-8zM192 248h32v8h-32zM256 248h16v8h-16zM280 248h8v8h-8zM312 248h8v8h-8zM32 256h8v8h-8zM48 256h8v8h-8zM64 256h8v8h-8zM80 256h16v8h-16zM104 256h8v8h-8zM120 256h8v8h-8zM136 256h8v8h-8zM152 256h8v8h-8zM168 256h24v8h-24zM208 256h16v8h-16zM232 256h16v8h-16zM256 256h64v8h-64zM96 264h16v8h-16zM120 264h24v8h-24zM176 264h16v8h-16zM208 264h16v8h-16zM232 264h8v8h-8zM256 264h8v8h-8zM288 264h8v8h-8zM32 272h56v8h-56zM96 272h24v8h-24zM144 272h8v8h-8zM160 272h16v8h-16zM184 272h8v8h-8zM208 272h8v8h-8zM240 272h8v8h-8zM256 272h8v8h-8zM272 272h8v8h-8zM288 272h16v8h-16zM312 272h16v8h-16zM32 280h8v8h-8zM80 280h8v8h-8zM96 280h24v8h-24zM152 280h32v8h-32zM240 280h8v8h-8zM256 280h8v8h-8zM288 280h8v8h-8zM32 288h8v8h-8zM48 288h24v8h-24zM80 288h8v8h-8zM96 288h8v8h-8zM120 288h16v8h-16zM144 288h8v8h-8zM168 288h16v8h-16zM192 288h24v8h-24zM224 288h16v8h-16zM248 288h48v8h-48zM304 288h8v8h-8zM320 288h8v8h-8zM32 296h8v8h-8zM48 296h24v8h-24zM80 296h8v8h-8zM96 296h16v8h-16zM128 296h32v8h-32zM200 296h8v8h-8zM256 296h8v8h-8zM272 296h24v8h-24zM304 296h16v8h-16zM32 304h8v8h-8zM48 304h24v8h-24zM80 304h8v8h-8zM96 304h8v8h-8zM136 304h16v8h-16zM160 304h16v8h-16zM192 304h8v8h-8zM216 304h24v8h-24zM248 304h8v8h-8zM264 304h8v8h-8zM280 304h8v8h-8zM304 304h8v8h-8zM320 304h8v8h-8zM32 312h8v8h-8zM80 312h8v8h-8zM96 312h16v8h-16zM120 312h8v8h-8zM136 312h16v8h-16zM176 312h8v8h-8zM200 312h8v8h-8zM216 312h8v8h-8zM240 312h24v8h-24zM272 312h8v8h-8zM320 312h8v8h-8zM32 320h56v8h-56zM104 320h16v8h-16zM136 320h48v8h-48zM208 320h48v8h-48zM296 320h32v8h-32z"/></svg>